<?xml version="1.0" encoding="utf-8"?>
<!-- Uploaded to: SVG Repo, www.svgrepo.com, Generator: SVG Repo Mixer Tools -->
<svg width="800px" height="800px" viewBox="0 0 64 64" xmlns="http://www.w3.org/2000/svg">
<path d="m11.54 32.64s-1.69-6.12-1-10.43a10.71 10.71 0 0 1 2.94-6.21s1.52-5.79 10.68-8.79 24.25-1.44 27 10.79 1 15.62 1 15.62a3.45 3.45 0 0 1 2.25 4.38c-1 3.31-5.68 3.25-5.68 3.25a35 35 0 0 1 -2.73 3.33 8 8 0 0 1 -2.25 1.75s5.31 4.31 6.12 6.44-.37 3.94-.93 4.12-2.19 1.13-7.25.82-5.13-.63-7.5-.13a23.11 23.11 0 0 1 -7.19.42c-1.38-.32-5.25-1.82-6.75-1.94s-4.77-.06-4.84-1.06 1.19-3.29 2.59-5.17a10.54 10.54 0 0 1 2.75-2.69 13.22 13.22 0 0 1 -4.57-5.31s-3.87 1.06-6.06-3.25 1.42-5.94 1.42-5.94z" fill="#1d1d1b"/>
<path d="m12.91 31.58s-2.31-6.75-.68-9.94 1.77-3.5 1.77-3.5 2.81-6.43 8.68-8.37 14.32-3.63 21.42.75 7.13 18.87 7.06 19.69-.25.87-.25.87a19.84 19.84 0 0 0 -3.18-10.69c-3.44-5.25-7.57-8.81-15.44-8.68s-14.69 6.29-15.19 7.56-.94 2.12-.94 2.12-.87-1.31-1.06-1.31-.69.25-.56.63 1.06 1.37 1.06 1.62a4.75 4.75 0 0 1 -.25.94s-1.5-1.38-1.75-1.19-.25 1-.25 1 1.44 1.5 1.38 1.69a16.46 16.46 0 0 0 -1.13 4.06 8 8 0 0 1 -.69 2.75z" fill="#7b5207"/>
<path d="m13.29 34.52s.81 2.31 1.25 3.37a6.91 6.91 0 0 1 .5 1.94 3.87 3.87 0 0 1 -3.13-2.31c-.81-2.13 1.09-2.75 1.38-3z" fill="#fcd396"/>
<path d="m51.16 35.21s-.31 1.25-.68 2.62a7.46 7.46 0 0 1 -.75 1.94s2.87-.19 3.25-1.88a2.25 2.25 0 0 0 -1.82-2.68z" fill="#fcd396"/>
<path d="m33.16 13.64c5.13 0 11.07 2.82 14.19 10.19s2.44 14.81-2.06 18.94-8.56 6.62-16.19 5.44-10.69-5.44-13-10.69-1.1-23.75 17.06-23.88z" fill="#fcd396"/>
<path d="m22.23 48c.54-.4 3.81 2.94 11.18 2.19s8.44-2.69 8.75-2.69 5.44 3.81 6.13 5.37.56 2.63.25 2.69a4 4 0 0 1 -.88 0s-3.18-5.19-3.81-5.25-.81.13-.69.44 3.32 5 3.13 5.06-.75.56-1.13.31-2.87-4.12-3.16-4.12-1 .18-.94.37 2.88 3.94 2.63 4.06a6.41 6.41 0 0 1 -1.44.13s-2.5-3.69-2.88-3.69-.62.63-.62.63 2.19 3.25 1.94 3.25a21.07 21.07 0 0 0 -5.19-.63c-2.5.13-4.44 1.13-6.63.88s-4.87-2-7.02-2.11-4.19-.12-4.25-.37.63-3.52 4.63-6.52z" fill="#fab900"/>
<path d="m21.23 21.83c-.46 0 5.81-1.25 6.12-.87s.56.87.06.87-5.25 1.17-5.68 1.06-.44-1.06-.5-1.06z" fill="#1d1d1b"/>
<path d="m39.85 21.21c.25 0 5.5.75 5.56 1.18s.44.57-.18.63a45.42 45.42 0 0 1 -5.38-.88c-.44-.14 0-.93 0-.93z" fill="#1d1d1b"/>
<path d="m23.66 23.71c3.44-.82 8.25-.44 8.07 5.68s-7.38 7.13-10.82 4.69-3.56-8.87 2.75-10.37z" fill="#1d1d1b"/>
<path d="m23.89 24.57c2.91-.69 7-.37 6.83 4.82s-6.25 6-9.16 4-3.02-7.55 2.33-8.82z" fill="#ffffff"/>
<path d="m38.41 23.89c3-1.58 7.94.13 8.13 5.69s-6.06 6.75-9.19 4.19-3.75-7.31 1.06-9.88z" fill="#1d1d1b"/>
<path d="m38.81 24.81c2.46-1.31 6.57.1 6.72 4.7s-5 5.59-7.6 3.47-3.1-6.05.88-8.17z" fill="#ffffff"/>
<g fill="#1d1d1b">
<path d="m24.54 28.14c.91-.7 2.5-.43 2.56.75a1.7 1.7 0 0 1 -2.37 1.82c-1.57-.57-.73-2.13-.19-2.57z"/>
<path d="m40.1 28.14c.91-.7 2.5-.43 2.56.75a1.69 1.69 0 0 1 -2.37 1.82c-1.56-.57-.75-2.13-.19-2.57z"/>
<path d="m31.79 36.39c.27.06 3.87 2.19 4.37 1.88s.13-1.75-.5-2.25-.56-.19-.62-.5a.4.4 0 0 1 .44-.5 2.75 2.75 0 0 1 2.12 2.31c.31 1.88-.81 2.44-2.31 2.06a13.56 13.56 0 0 1 -4.13-2.31c-.16-.25.32-.75.63-.69z"/>
<path d="m26 41.27c.43-.06 2.12 2.12 6.43 1.94a18.82 18.82 0 0 0 5-.75.93.93 0 0 1 .75.87c-.06.19-2.87 1.38-7.12 1-4.47-.39-5.69-2.06-5.81-2.31s.29-.69.75-.75z"/>
</g>
</svg>